 <svg xmlns="http://www.w3.org/2000/svg" xmlns:xlink="http://www.w3.org/1999/xlink" width="170" zoomAndPan="magnify" viewBox="0 0 45 30.000001" height="200" preserveAspectRatio="xMidYMid meet" version="1.0"><defs><g/><clipPath id="ca3512f262"><path d="M 0.726562 12 L 4 12 L 4 17 L 0.726562 17 Z M 0.726562 12 " clip-rule="nonzero"/></clipPath><clipPath id="dcd4e68d18"><path d="M 41 12 L 44.273438 12 L 44.273438 17 L 41 17 Z M 41 12 " clip-rule="nonzero"/></clipPath></defs><g clip-path="url(#ca3512f262)"><g fill="#004aad" fill-opacity="1"><g transform="translate(0.739899, 16.320077)"><g><path d="M 2.21875 -0.546875 L 0.859375 -0.546875 L 0.671875 0 L -0.09375 0 L 1.5 -3.828125 L 1.5625 -3.828125 L 3.15625 0 L 2.421875 0 Z M 2.015625 -1.078125 L 1.609375 -2.09375 L 1.53125 -2.40625 L 1.4375 -2.09375 L 1.0625 -1.078125 Z M 2.015625 -1.078125 "/></g></g></g></g><g fill="#ffffff" fill-opacity="1"><g transform="translate(3.805198, 16.320077)"><g><path d="M 2.21875 -0.546875 L 0.859375 -0.546875 L 0.671875 0 L -0.09375 0 L 1.5 -3.828125 L 1.5625 -3.828125 L 3.15625 0 L 2.421875 0 Z M 2.015625 -1.078125 L 1.609375 -2.09375 L 1.53125 -2.40625 L 1.4375 -2.09375 L 1.0625 -1.078125 Z M 2.015625 -1.078125 "/></g></g></g><g fill="#ffffff" fill-opacity="1"><g transform="translate(6.873731, 16.320077)"><g><path d="M 1.796875 -1.46875 L 1.796875 0 L 1.109375 0 L 1.109375 -1.515625 L -0.078125 -3.765625 L 0.6875 -3.765625 L 1.46875 -2.125 L 2.234375 -3.765625 L 2.984375 -3.765625 Z M 1.796875 -1.46875 "/></g></g></g><g fill="#ffffff" fill-opacity="1"><g transform="translate(9.785318, 16.320077)"><g><path d="M 1.703125 0.0625 C 1.285156 0.0625 0.957031 -0.046875 0.71875 -0.265625 C 0.476562 -0.484375 0.359375 -0.84375 0.359375 -1.34375 L 0.359375 -3.765625 L 1.0625 -3.765625 L 1.0625 -1.265625 C 1.0625 -0.984375 1.125 -0.785156 1.25 -0.671875 C 1.375 -0.566406 1.519531 -0.515625 1.6875 -0.515625 C 1.851562 -0.515625 1.992188 -0.566406 2.109375 -0.671875 C 2.234375 -0.785156 2.296875 -0.984375 2.296875 -1.265625 L 2.296875 -3.765625 L 3 -3.765625 L 3 -1.34375 C 3 -0.84375 2.878906 -0.484375 2.640625 -0.265625 C 2.410156 -0.046875 2.097656 0.0625 1.703125 0.0625 Z M 1.703125 0.0625 "/></g></g></g><g fill="#ffffff" fill-opacity="1"><g transform="translate(13.146095, 16.320077)"><g><path d="M 1.375 0.0625 C 1.207031 0.0625 1.046875 0.0390625 0.890625 0 C 0.742188 -0.0390625 0.613281 -0.09375 0.5 -0.15625 C 0.394531 -0.21875 0.3125 -0.28125 0.25 -0.34375 L 0.515625 -0.921875 C 0.554688 -0.867188 0.617188 -0.8125 0.703125 -0.75 C 0.785156 -0.6875 0.878906 -0.632812 0.984375 -0.59375 C 1.097656 -0.550781 1.210938 -0.53125 1.328125 -0.53125 C 1.460938 -0.53125 1.578125 -0.566406 1.671875 -0.640625 C 1.773438 -0.722656 1.828125 -0.832031 1.828125 -0.96875 C 1.828125 -1.0625 1.800781 -1.140625 1.75 -1.203125 C 1.707031 -1.273438 1.648438 -1.335938 1.578125 -1.390625 C 1.503906 -1.441406 1.394531 -1.515625 1.25 -1.609375 C 1.039062 -1.734375 0.878906 -1.835938 0.765625 -1.921875 C 0.648438 -2.015625 0.546875 -2.132812 0.453125 -2.28125 C 0.367188 -2.425781 0.328125 -2.601562 0.328125 -2.8125 C 0.328125 -3.007812 0.367188 -3.1875 0.453125 -3.34375 C 0.546875 -3.5 0.675781 -3.617188 0.84375 -3.703125 C 1.007812 -3.785156 1.207031 -3.828125 1.4375 -3.828125 C 1.820312 -3.828125 2.144531 -3.710938 2.40625 -3.484375 L 2.109375 -2.9375 C 2.078125 -2.976562 2.03125 -3.023438 1.96875 -3.078125 C 1.90625 -3.128906 1.828125 -3.171875 1.734375 -3.203125 C 1.648438 -3.242188 1.5625 -3.265625 1.46875 -3.265625 C 1.332031 -3.265625 1.222656 -3.222656 1.140625 -3.140625 C 1.066406 -3.054688 1.03125 -2.957031 1.03125 -2.84375 C 1.03125 -2.75 1.050781 -2.664062 1.09375 -2.59375 C 1.144531 -2.519531 1.207031 -2.453125 1.28125 -2.390625 C 1.351562 -2.335938 1.453125 -2.273438 1.578125 -2.203125 C 1.804688 -2.066406 1.984375 -1.953125 2.109375 -1.859375 C 2.234375 -1.773438 2.332031 -1.660156 2.40625 -1.515625 C 2.488281 -1.367188 2.53125 -1.195312 2.53125 -1 C 2.53125 -0.78125 2.484375 -0.585938 2.390625 -0.421875 C 2.296875 -0.265625 2.160156 -0.144531 1.984375 -0.0625 C 1.816406 0.0195312 1.613281 0.0625 1.375 0.0625 Z M 1.375 0.0625 "/></g></g></g><g fill="#ffffff" fill-opacity="1"><g transform="translate(15.873684, 16.320077)"><g><path d="M 3.09375 -3.765625 L 3.09375 0 L 2.390625 0 L 2.390625 -1.59375 L 1.15625 -1.59375 L 1.15625 0 L 0.453125 0 L 0.453125 -3.765625 L 1.15625 -3.765625 L 1.15625 -2.1875 L 2.390625 -2.1875 L 2.390625 -3.765625 Z M 3.09375 -3.765625 "/></g></g></g><g fill="#000000" fill-opacity="1"><g transform="translate(19.427653, 16.320077)"><g/></g></g><g fill="#004aad" fill-opacity="1"><g transform="translate(20.449419, 16.320077)"><g><path d="M 2.296875 -2 C 2.503906 -1.945312 2.660156 -1.84375 2.765625 -1.6875 C 2.867188 -1.53125 2.921875 -1.332031 2.921875 -1.09375 C 2.921875 -0.738281 2.800781 -0.46875 2.5625 -0.28125 C 2.332031 -0.09375 1.96875 0 1.46875 0 L 0.453125 0 L 0.453125 -3.765625 L 1.453125 -3.765625 C 2.304688 -3.765625 2.734375 -3.429688 2.734375 -2.765625 C 2.734375 -2.609375 2.695312 -2.457031 2.625 -2.3125 C 2.550781 -2.164062 2.441406 -2.0625 2.296875 -2 Z M 2.0625 -2.734375 C 2.0625 -2.921875 2.003906 -3.050781 1.890625 -3.125 C 1.773438 -3.195312 1.628906 -3.234375 1.453125 -3.234375 L 1.140625 -3.234375 L 1.140625 -2.1875 L 1.578125 -2.1875 C 1.691406 -2.1875 1.785156 -2.210938 1.859375 -2.265625 C 1.929688 -2.328125 1.984375 -2.398438 2.015625 -2.484375 C 2.046875 -2.566406 2.0625 -2.648438 2.0625 -2.734375 Z M 1.546875 -0.546875 C 1.742188 -0.546875 1.898438 -0.585938 2.015625 -0.671875 C 2.140625 -0.753906 2.203125 -0.90625 2.203125 -1.125 C 2.203125 -1.34375 2.140625 -1.488281 2.015625 -1.5625 C 1.890625 -1.644531 1.722656 -1.6875 1.515625 -1.6875 L 1.140625 -1.6875 L 1.140625 -0.546875 Z M 1.546875 -0.546875 "/></g></g></g><g fill="#ffffff" fill-opacity="1"><g transform="translate(23.521765, 16.320077)"><g><path d="M 2.21875 -0.546875 L 0.859375 -0.546875 L 0.671875 0 L -0.09375 0 L 1.5 -3.828125 L 1.5625 -3.828125 L 3.15625 0 L 2.421875 0 Z M 2.015625 -1.078125 L 1.609375 -2.09375 L 1.53125 -2.40625 L 1.4375 -2.09375 L 1.0625 -1.078125 Z M 2.015625 -1.078125 "/></g></g></g><g fill="#ffffff" fill-opacity="1"><g transform="translate(26.590298, 16.320077)"><g><path d="M 2.109375 0 L 1.140625 -1.359375 L 1.140625 0 L 0.453125 0 L 0.453125 -3.765625 L 1.5 -3.765625 C 2.394531 -3.765625 2.84375 -3.363281 2.84375 -2.5625 C 2.84375 -2.382812 2.8125 -2.207031 2.75 -2.03125 C 2.695312 -1.863281 2.601562 -1.710938 2.46875 -1.578125 C 2.34375 -1.453125 2.175781 -1.363281 1.96875 -1.3125 L 2.953125 0 Z M 1.421875 -1.703125 C 1.578125 -1.703125 1.707031 -1.738281 1.8125 -1.8125 C 1.925781 -1.882812 2.007812 -1.976562 2.0625 -2.09375 C 2.125 -2.21875 2.15625 -2.351562 2.15625 -2.5 C 2.15625 -2.75 2.097656 -2.929688 1.984375 -3.046875 C 1.867188 -3.171875 1.675781 -3.234375 1.40625 -3.234375 L 1.140625 -3.234375 L 1.140625 -1.703125 Z M 1.421875 -1.703125 "/></g></g></g><g fill="#ffffff" fill-opacity="1"><g transform="translate(29.712947, 16.320077)"><g><path d="M 2.53125 -3.15625 L 1.671875 -3.15625 L 1.671875 0 L 0.96875 0 L 0.96875 -3.15625 L 0.09375 -3.15625 L 0.09375 -3.765625 L 2.53125 -3.765625 Z M 2.53125 -3.15625 "/></g></g></g><g fill="#ffffff" fill-opacity="1"><g transform="translate(32.34853, 16.320077)"><g><path d="M 2.21875 -0.546875 L 0.859375 -0.546875 L 0.671875 0 L -0.09375 0 L 1.5 -3.828125 L 1.5625 -3.828125 L 3.15625 0 L 2.421875 0 Z M 2.015625 -1.078125 L 1.609375 -2.09375 L 1.53125 -2.40625 L 1.4375 -2.09375 L 1.0625 -1.078125 Z M 2.015625 -1.078125 "/></g></g></g><g fill="#ffffff" fill-opacity="1"><g transform="translate(35.417064, 16.320077)"><g><path d="M 1.703125 0.0625 C 1.285156 0.0625 0.957031 -0.046875 0.71875 -0.265625 C 0.476562 -0.484375 0.359375 -0.84375 0.359375 -1.34375 L 0.359375 -3.765625 L 1.0625 -3.765625 L 1.0625 -1.265625 C 1.0625 -0.984375 1.125 -0.785156 1.25 -0.671875 C 1.375 -0.566406 1.519531 -0.515625 1.6875 -0.515625 C 1.851562 -0.515625 1.992188 -0.566406 2.109375 -0.671875 C 2.234375 -0.785156 2.296875 -0.984375 2.296875 -1.265625 L 2.296875 -3.765625 L 3 -3.765625 L 3 -1.34375 C 3 -0.84375 2.878906 -0.484375 2.640625 -0.265625 C 2.410156 -0.046875 2.097656 0.0625 1.703125 0.0625 Z M 1.703125 0.0625 "/></g></g></g><g fill="#ffffff" fill-opacity="1"><g transform="translate(38.777841, 16.320077)"><g><path d="M 2.265625 -0.59375 L 2.265625 0 L 0.453125 0 L 0.453125 -3.765625 L 1.140625 -3.765625 L 1.140625 -0.59375 Z M 2.265625 -0.59375 "/></g></g></g><g clip-path="url(#dcd4e68d18)"><g fill="#ffffff" fill-opacity="1"><g transform="translate(41.186128, 16.320077)"><g><path d="M 2.21875 -0.546875 L 0.859375 -0.546875 L 0.671875 0 L -0.09375 0 L 1.5 -3.828125 L 1.5625 -3.828125 L 3.15625 0 L 2.421875 0 Z M 2.015625 -1.078125 L 1.609375 -2.09375 L 1.53125 -2.40625 L 1.4375 -2.09375 L 1.0625 -1.078125 Z M 2.015625 -1.078125 "/></g></g></g></g></svg>